<mxfile host="app.diagrams.net" modified="2024-07-20T17:58:15.715Z" agent="Mozilla/5.0 (X11; Ubuntu; Linux x86_64; rv:128.0) Gecko/20100101 Firefox/128.0" etag="8Iz6N8MyyRps9vn0CEUr" version="24.7.2" type="github">
  <diagram name="Page-1" id="iY9h923-xnfuU6ivVs_U">
    <mxGraphModel dx="1090" dy="814" grid="1" gridSize="10" guides="1" tooltips="1" connect="1" arrows="1" fold="1" page="1" pageScale="1" pageWidth="70" pageHeight="120" math="1" shadow="0">
      <root>
        <mxCell id="0" />
        <mxCell id="1" parent="0" />
        <mxCell id="hw2e2iY90Wc657Rlc0dh-1" value="$$a_n^1$$" style="ellipse;whiteSpace=wrap;html=1;aspect=fixed;fillColor=#b3c8cf;" vertex="1" parent="1">
          <mxGeometry x="-60" y="-52" width="40" height="40" as="geometry" />
        </mxCell>
        <mxCell id="hw2e2iY90Wc657Rlc0dh-2" value="$$a_3^1$$" style="ellipse;whiteSpace=wrap;html=1;aspect=fixed;fillColor=#b3c8cf;" vertex="1" parent="1">
          <mxGeometry x="-60" y="-132" width="40" height="40" as="geometry" />
        </mxCell>
        <mxCell id="hw2e2iY90Wc657Rlc0dh-3" value="$$a_2^1$$" style="ellipse;whiteSpace=wrap;html=1;aspect=fixed;fillColor=#b3c8cf;" vertex="1" parent="1">
          <mxGeometry x="-60" y="-212" width="40" height="40" as="geometry" />
        </mxCell>
        <mxCell id="hw2e2iY90Wc657Rlc0dh-4" value="$$a_1^1$$" style="ellipse;whiteSpace=wrap;html=1;aspect=fixed;fillColor=#b3c8cf;" vertex="1" parent="1">
          <mxGeometry x="-60" y="-292" width="40" height="40" as="geometry" />
        </mxCell>
        <mxCell id="hw2e2iY90Wc657Rlc0dh-5" value="$$x_n$$" style="ellipse;whiteSpace=wrap;html=1;aspect=fixed;fillColor=#b3c8cf;" vertex="1" parent="1">
          <mxGeometry x="-140" y="-92" width="40" height="40" as="geometry" />
        </mxCell>
        <mxCell id="hw2e2iY90Wc657Rlc0dh-6" value="$$x_2$$" style="ellipse;whiteSpace=wrap;html=1;aspect=fixed;fillColor=#b3c8cf;" vertex="1" parent="1">
          <mxGeometry x="-140" y="-172" width="40" height="40" as="geometry" />
        </mxCell>
        <mxCell id="hw2e2iY90Wc657Rlc0dh-7" value="$$x_1$$" style="ellipse;whiteSpace=wrap;html=1;aspect=fixed;fillColor=#b3c8cf;" vertex="1" parent="1">
          <mxGeometry x="-140" y="-252" width="40" height="40" as="geometry" />
        </mxCell>
        <mxCell id="hw2e2iY90Wc657Rlc0dh-8" value="$$a_n^2$$" style="ellipse;whiteSpace=wrap;html=1;aspect=fixed;fillColor=#b3c8cf;" vertex="1" parent="1">
          <mxGeometry x="20" y="-52" width="40" height="40" as="geometry" />
        </mxCell>
        <mxCell id="hw2e2iY90Wc657Rlc0dh-9" value="$$a_3^2$$" style="ellipse;whiteSpace=wrap;html=1;aspect=fixed;fillColor=#b3c8cf;" vertex="1" parent="1">
          <mxGeometry x="20" y="-132" width="40" height="40" as="geometry" />
        </mxCell>
        <mxCell id="hw2e2iY90Wc657Rlc0dh-10" value="$$a_2^2$$" style="ellipse;whiteSpace=wrap;html=1;aspect=fixed;fillColor=#b3c8cf;" vertex="1" parent="1">
          <mxGeometry x="20" y="-212" width="40" height="40" as="geometry" />
        </mxCell>
        <mxCell id="hw2e2iY90Wc657Rlc0dh-11" value="$$a_1^2$$" style="ellipse;whiteSpace=wrap;html=1;aspect=fixed;fillColor=#b3c8cf;" vertex="1" parent="1">
          <mxGeometry x="20" y="-292" width="40" height="40" as="geometry" />
        </mxCell>
        <mxCell id="hw2e2iY90Wc657Rlc0dh-12" value="$$a_1^n$$" style="ellipse;whiteSpace=wrap;html=1;aspect=fixed;fillColor=#b3c8cf;" vertex="1" parent="1">
          <mxGeometry x="166" y="-252" width="40" height="40" as="geometry" />
        </mxCell>
        <mxCell id="hw2e2iY90Wc657Rlc0dh-13" value="$$a_2^n$$" style="ellipse;whiteSpace=wrap;html=1;aspect=fixed;fillColor=#b3c8cf;" vertex="1" parent="1">
          <mxGeometry x="166" y="-172" width="40" height="40" as="geometry" />
        </mxCell>
        <mxCell id="hw2e2iY90Wc657Rlc0dh-14" value="" style="endArrow=none;html=1;rounded=0;exitX=1;exitY=0.5;exitDx=0;exitDy=0;entryX=0;entryY=0.5;entryDx=0;entryDy=0;endFill=0;" edge="1" parent="1" source="hw2e2iY90Wc657Rlc0dh-7" target="hw2e2iY90Wc657Rlc0dh-4">
          <mxGeometry width="50" height="50" relative="1" as="geometry">
            <mxPoint x="-100" y="-222" as="sourcePoint" />
            <mxPoint x="-50" y="-272" as="targetPoint" />
          </mxGeometry>
        </mxCell>
        <mxCell id="hw2e2iY90Wc657Rlc0dh-15" value="" style="endArrow=none;html=1;rounded=0;exitX=1;exitY=0.5;exitDx=0;exitDy=0;entryX=0;entryY=0.5;entryDx=0;entryDy=0;endFill=0;" edge="1" parent="1" source="hw2e2iY90Wc657Rlc0dh-6" target="hw2e2iY90Wc657Rlc0dh-4">
          <mxGeometry width="50" height="50" relative="1" as="geometry">
            <mxPoint x="-100" y="-152" as="sourcePoint" />
            <mxPoint x="-80" y="-232" as="targetPoint" />
          </mxGeometry>
        </mxCell>
        <mxCell id="hw2e2iY90Wc657Rlc0dh-16" value="" style="endArrow=none;html=1;rounded=0;exitX=1;exitY=0.5;exitDx=0;exitDy=0;entryX=0;entryY=0.5;entryDx=0;entryDy=0;endFill=0;" edge="1" parent="1" source="hw2e2iY90Wc657Rlc0dh-5" target="hw2e2iY90Wc657Rlc0dh-4">
          <mxGeometry width="50" height="50" relative="1" as="geometry">
            <mxPoint x="-100" y="-152" as="sourcePoint" />
            <mxPoint x="-60" y="-192" as="targetPoint" />
          </mxGeometry>
        </mxCell>
        <mxCell id="hw2e2iY90Wc657Rlc0dh-17" value="" style="endArrow=none;html=1;rounded=0;entryX=0;entryY=0.5;entryDx=0;entryDy=0;exitX=1;exitY=0.5;exitDx=0;exitDy=0;endFill=0;" edge="1" parent="1" source="hw2e2iY90Wc657Rlc0dh-7" target="hw2e2iY90Wc657Rlc0dh-3">
          <mxGeometry width="50" height="50" relative="1" as="geometry">
            <mxPoint x="-50" y="-122" as="sourcePoint" />
            <mxPoint y="-172" as="targetPoint" />
          </mxGeometry>
        </mxCell>
        <mxCell id="hw2e2iY90Wc657Rlc0dh-18" value="" style="endArrow=none;html=1;rounded=0;exitX=1;exitY=0.5;exitDx=0;exitDy=0;entryX=0;entryY=0.5;entryDx=0;entryDy=0;endFill=0;" edge="1" parent="1" source="hw2e2iY90Wc657Rlc0dh-6" target="hw2e2iY90Wc657Rlc0dh-3">
          <mxGeometry width="50" height="50" relative="1" as="geometry">
            <mxPoint x="-100" y="-142" as="sourcePoint" />
            <mxPoint x="-60" y="-182" as="targetPoint" />
          </mxGeometry>
        </mxCell>
        <mxCell id="hw2e2iY90Wc657Rlc0dh-19" value="" style="endArrow=none;html=1;rounded=0;exitX=1;exitY=0.5;exitDx=0;exitDy=0;entryX=0;entryY=0.5;entryDx=0;entryDy=0;endFill=0;" edge="1" parent="1" source="hw2e2iY90Wc657Rlc0dh-5" target="hw2e2iY90Wc657Rlc0dh-3">
          <mxGeometry width="50" height="50" relative="1" as="geometry">
            <mxPoint x="-90" y="-122" as="sourcePoint" />
            <mxPoint x="-50" y="-162" as="targetPoint" />
          </mxGeometry>
        </mxCell>
        <mxCell id="hw2e2iY90Wc657Rlc0dh-20" value="" style="endArrow=none;html=1;rounded=0;exitX=1;exitY=0.5;exitDx=0;exitDy=0;entryX=0;entryY=0.5;entryDx=0;entryDy=0;endFill=0;" edge="1" parent="1" source="hw2e2iY90Wc657Rlc0dh-5" target="hw2e2iY90Wc657Rlc0dh-2">
          <mxGeometry width="50" height="50" relative="1" as="geometry">
            <mxPoint x="-100" y="-52" as="sourcePoint" />
            <mxPoint x="-60" y="-92" as="targetPoint" />
          </mxGeometry>
        </mxCell>
        <mxCell id="hw2e2iY90Wc657Rlc0dh-21" value="" style="endArrow=none;html=1;rounded=0;exitX=1;exitY=0.5;exitDx=0;exitDy=0;entryX=0;entryY=0.5;entryDx=0;entryDy=0;endFill=0;" edge="1" parent="1" source="hw2e2iY90Wc657Rlc0dh-7" target="hw2e2iY90Wc657Rlc0dh-2">
          <mxGeometry width="50" height="50" relative="1" as="geometry">
            <mxPoint x="-80" y="-222" as="sourcePoint" />
            <mxPoint x="-40" y="-262" as="targetPoint" />
          </mxGeometry>
        </mxCell>
        <mxCell id="hw2e2iY90Wc657Rlc0dh-22" value="" style="endArrow=none;html=1;rounded=0;exitX=1;exitY=0.5;exitDx=0;exitDy=0;entryX=0;entryY=0.5;entryDx=0;entryDy=0;endFill=0;" edge="1" parent="1" source="hw2e2iY90Wc657Rlc0dh-7" target="hw2e2iY90Wc657Rlc0dh-1">
          <mxGeometry width="50" height="50" relative="1" as="geometry">
            <mxPoint x="-50" y="-222" as="sourcePoint" />
            <mxPoint x="-10" y="-262" as="targetPoint" />
          </mxGeometry>
        </mxCell>
        <mxCell id="hw2e2iY90Wc657Rlc0dh-23" value="" style="endArrow=none;html=1;rounded=0;exitX=1;exitY=0.5;exitDx=0;exitDy=0;entryX=0;entryY=0.5;entryDx=0;entryDy=0;endFill=0;" edge="1" parent="1" source="hw2e2iY90Wc657Rlc0dh-5" target="hw2e2iY90Wc657Rlc0dh-1">
          <mxGeometry width="50" height="50" relative="1" as="geometry">
            <mxPoint x="-90" y="-52" as="sourcePoint" />
            <mxPoint x="-50" y="-92" as="targetPoint" />
          </mxGeometry>
        </mxCell>
        <mxCell id="hw2e2iY90Wc657Rlc0dh-24" value="" style="endArrow=none;html=1;rounded=0;exitX=1;exitY=0.5;exitDx=0;exitDy=0;entryX=0;entryY=0.5;entryDx=0;entryDy=0;endFill=0;" edge="1" parent="1" source="hw2e2iY90Wc657Rlc0dh-6" target="hw2e2iY90Wc657Rlc0dh-2">
          <mxGeometry width="50" height="50" relative="1" as="geometry">
            <mxPoint x="-90" y="-142" as="sourcePoint" />
            <mxPoint x="-50" y="-182" as="targetPoint" />
          </mxGeometry>
        </mxCell>
        <mxCell id="hw2e2iY90Wc657Rlc0dh-25" value="" style="endArrow=none;html=1;rounded=0;exitX=1;exitY=0.5;exitDx=0;exitDy=0;entryX=0;entryY=0.5;entryDx=0;entryDy=0;endFill=0;" edge="1" parent="1" source="hw2e2iY90Wc657Rlc0dh-6" target="hw2e2iY90Wc657Rlc0dh-1">
          <mxGeometry width="50" height="50" relative="1" as="geometry">
            <mxPoint y="-132" as="sourcePoint" />
            <mxPoint x="40" y="-172" as="targetPoint" />
          </mxGeometry>
        </mxCell>
        <mxCell id="hw2e2iY90Wc657Rlc0dh-26" value="" style="endArrow=none;html=1;rounded=0;entryX=0;entryY=0.5;entryDx=0;entryDy=0;exitX=1;exitY=0.5;exitDx=0;exitDy=0;" edge="1" parent="1" source="hw2e2iY90Wc657Rlc0dh-4" target="hw2e2iY90Wc657Rlc0dh-11">
          <mxGeometry width="50" height="50" relative="1" as="geometry">
            <mxPoint x="-40" y="-212" as="sourcePoint" />
            <mxPoint x="10" y="-262" as="targetPoint" />
          </mxGeometry>
        </mxCell>
        <mxCell id="hw2e2iY90Wc657Rlc0dh-27" value="" style="endArrow=none;html=1;rounded=0;entryX=0;entryY=0.5;entryDx=0;entryDy=0;exitX=1;exitY=0.5;exitDx=0;exitDy=0;" edge="1" parent="1" source="hw2e2iY90Wc657Rlc0dh-4" target="hw2e2iY90Wc657Rlc0dh-10">
          <mxGeometry width="50" height="50" relative="1" as="geometry">
            <mxPoint x="-10" y="-262" as="sourcePoint" />
            <mxPoint x="30" y="-262" as="targetPoint" />
          </mxGeometry>
        </mxCell>
        <mxCell id="hw2e2iY90Wc657Rlc0dh-28" value="" style="endArrow=none;html=1;rounded=0;entryX=0;entryY=0.5;entryDx=0;entryDy=0;exitX=1;exitY=0.5;exitDx=0;exitDy=0;" edge="1" parent="1" source="hw2e2iY90Wc657Rlc0dh-4" target="hw2e2iY90Wc657Rlc0dh-9">
          <mxGeometry width="50" height="50" relative="1" as="geometry">
            <mxPoint y="-252" as="sourcePoint" />
            <mxPoint x="40" y="-252" as="targetPoint" />
          </mxGeometry>
        </mxCell>
        <mxCell id="hw2e2iY90Wc657Rlc0dh-29" value="" style="endArrow=none;html=1;rounded=0;entryX=0;entryY=0.5;entryDx=0;entryDy=0;exitX=1;exitY=0.5;exitDx=0;exitDy=0;" edge="1" parent="1" source="hw2e2iY90Wc657Rlc0dh-4" target="hw2e2iY90Wc657Rlc0dh-8">
          <mxGeometry width="50" height="50" relative="1" as="geometry">
            <mxPoint x="10" y="-242" as="sourcePoint" />
            <mxPoint x="50" y="-242" as="targetPoint" />
          </mxGeometry>
        </mxCell>
        <mxCell id="hw2e2iY90Wc657Rlc0dh-30" value="" style="endArrow=none;html=1;rounded=0;entryX=0;entryY=0.5;entryDx=0;entryDy=0;exitX=1;exitY=0.5;exitDx=0;exitDy=0;" edge="1" parent="1" source="hw2e2iY90Wc657Rlc0dh-3" target="hw2e2iY90Wc657Rlc0dh-11">
          <mxGeometry width="50" height="50" relative="1" as="geometry">
            <mxPoint x="-10" y="-192.5" as="sourcePoint" />
            <mxPoint x="30" y="-192.5" as="targetPoint" />
          </mxGeometry>
        </mxCell>
        <mxCell id="hw2e2iY90Wc657Rlc0dh-31" value="" style="endArrow=none;html=1;rounded=0;exitX=1;exitY=0.5;exitDx=0;exitDy=0;entryX=0;entryY=0.5;entryDx=0;entryDy=0;" edge="1" parent="1" source="hw2e2iY90Wc657Rlc0dh-3" target="hw2e2iY90Wc657Rlc0dh-10">
          <mxGeometry width="50" height="50" relative="1" as="geometry">
            <mxPoint x="-10" y="-192.5" as="sourcePoint" />
            <mxPoint y="-192" as="targetPoint" />
          </mxGeometry>
        </mxCell>
        <mxCell id="hw2e2iY90Wc657Rlc0dh-32" value="" style="endArrow=none;html=1;rounded=0;entryX=0;entryY=0.5;entryDx=0;entryDy=0;exitX=1;exitY=0.5;exitDx=0;exitDy=0;" edge="1" parent="1" source="hw2e2iY90Wc657Rlc0dh-3" target="hw2e2iY90Wc657Rlc0dh-9">
          <mxGeometry width="50" height="50" relative="1" as="geometry">
            <mxPoint x="-10" y="-173" as="sourcePoint" />
            <mxPoint x="30" y="-173" as="targetPoint" />
          </mxGeometry>
        </mxCell>
        <mxCell id="hw2e2iY90Wc657Rlc0dh-33" value="" style="endArrow=none;html=1;rounded=0;entryX=0;entryY=0.5;entryDx=0;entryDy=0;exitX=1;exitY=0.5;exitDx=0;exitDy=0;" edge="1" parent="1" source="hw2e2iY90Wc657Rlc0dh-3" target="hw2e2iY90Wc657Rlc0dh-8">
          <mxGeometry width="50" height="50" relative="1" as="geometry">
            <mxPoint x="50" y="-202" as="sourcePoint" />
            <mxPoint x="90" y="-202" as="targetPoint" />
          </mxGeometry>
        </mxCell>
        <mxCell id="hw2e2iY90Wc657Rlc0dh-34" value="" style="endArrow=none;html=1;rounded=0;entryX=0;entryY=0.5;entryDx=0;entryDy=0;exitX=1;exitY=0.5;exitDx=0;exitDy=0;" edge="1" parent="1" source="hw2e2iY90Wc657Rlc0dh-2" target="hw2e2iY90Wc657Rlc0dh-11">
          <mxGeometry width="50" height="50" relative="1" as="geometry">
            <mxPoint x="-10" y="-112.5" as="sourcePoint" />
            <mxPoint x="30" y="-112.5" as="targetPoint" />
          </mxGeometry>
        </mxCell>
        <mxCell id="hw2e2iY90Wc657Rlc0dh-35" value="" style="endArrow=none;html=1;rounded=0;entryX=0;entryY=0.5;entryDx=0;entryDy=0;exitX=1;exitY=0.5;exitDx=0;exitDy=0;" edge="1" parent="1" source="hw2e2iY90Wc657Rlc0dh-2" target="hw2e2iY90Wc657Rlc0dh-10">
          <mxGeometry width="50" height="50" relative="1" as="geometry">
            <mxPoint x="-10" y="-98" as="sourcePoint" />
            <mxPoint x="30" y="-98" as="targetPoint" />
          </mxGeometry>
        </mxCell>
        <mxCell id="hw2e2iY90Wc657Rlc0dh-36" value="" style="endArrow=none;html=1;rounded=0;exitX=1;exitY=0.5;exitDx=0;exitDy=0;entryX=0;entryY=0.5;entryDx=0;entryDy=0;" edge="1" parent="1" source="hw2e2iY90Wc657Rlc0dh-2" target="hw2e2iY90Wc657Rlc0dh-9">
          <mxGeometry width="50" height="50" relative="1" as="geometry">
            <mxPoint x="10" y="-97" as="sourcePoint" />
            <mxPoint x="40" y="-72" as="targetPoint" />
          </mxGeometry>
        </mxCell>
        <mxCell id="hw2e2iY90Wc657Rlc0dh-37" value="" style="endArrow=none;html=1;rounded=0;entryX=0;entryY=0.5;entryDx=0;entryDy=0;exitX=1;exitY=0.5;exitDx=0;exitDy=0;" edge="1" parent="1" source="hw2e2iY90Wc657Rlc0dh-2" target="hw2e2iY90Wc657Rlc0dh-8">
          <mxGeometry width="50" height="50" relative="1" as="geometry">
            <mxPoint x="-10" y="-82" as="sourcePoint" />
            <mxPoint x="30" y="-82" as="targetPoint" />
          </mxGeometry>
        </mxCell>
        <mxCell id="hw2e2iY90Wc657Rlc0dh-38" value="" style="endArrow=none;html=1;rounded=0;entryX=0;entryY=0.5;entryDx=0;entryDy=0;exitX=1;exitY=0.5;exitDx=0;exitDy=0;" edge="1" parent="1" source="hw2e2iY90Wc657Rlc0dh-1" target="hw2e2iY90Wc657Rlc0dh-11">
          <mxGeometry width="50" height="50" relative="1" as="geometry">
            <mxPoint x="-10" y="-32.5" as="sourcePoint" />
            <mxPoint x="30" y="-32.5" as="targetPoint" />
          </mxGeometry>
        </mxCell>
        <mxCell id="hw2e2iY90Wc657Rlc0dh-39" value="" style="endArrow=none;html=1;rounded=0;entryX=0;entryY=0.5;entryDx=0;entryDy=0;exitX=1;exitY=0.5;exitDx=0;exitDy=0;" edge="1" parent="1" source="hw2e2iY90Wc657Rlc0dh-1" target="hw2e2iY90Wc657Rlc0dh-10">
          <mxGeometry width="50" height="50" relative="1" as="geometry">
            <mxPoint x="-10" y="-32.5" as="sourcePoint" />
            <mxPoint x="30" y="-32.5" as="targetPoint" />
          </mxGeometry>
        </mxCell>
        <mxCell id="hw2e2iY90Wc657Rlc0dh-40" value="" style="endArrow=none;html=1;rounded=0;entryX=0;entryY=0.5;entryDx=0;entryDy=0;exitX=1;exitY=0.5;exitDx=0;exitDy=0;" edge="1" parent="1" source="hw2e2iY90Wc657Rlc0dh-1" target="hw2e2iY90Wc657Rlc0dh-9">
          <mxGeometry width="50" height="50" relative="1" as="geometry">
            <mxPoint x="-10" y="-32.5" as="sourcePoint" />
            <mxPoint x="30" y="-32.5" as="targetPoint" />
          </mxGeometry>
        </mxCell>
        <mxCell id="hw2e2iY90Wc657Rlc0dh-41" value="" style="endArrow=none;html=1;rounded=0;entryX=0;entryY=0.5;entryDx=0;entryDy=0;exitX=1;exitY=0.5;exitDx=0;exitDy=0;" edge="1" parent="1" source="hw2e2iY90Wc657Rlc0dh-1" target="hw2e2iY90Wc657Rlc0dh-8">
          <mxGeometry width="50" height="50" relative="1" as="geometry">
            <mxPoint x="-20" y="-32.5" as="sourcePoint" />
            <mxPoint x="20" y="-32.5" as="targetPoint" />
          </mxGeometry>
        </mxCell>
        <mxCell id="hw2e2iY90Wc657Rlc0dh-42" value="" style="endArrow=none;html=1;rounded=0;entryX=0;entryY=0.5;entryDx=0;entryDy=0;exitX=1;exitY=0.5;exitDx=0;exitDy=0;" edge="1" parent="1" source="hw2e2iY90Wc657Rlc0dh-11" target="hw2e2iY90Wc657Rlc0dh-12">
          <mxGeometry width="50" height="50" relative="1" as="geometry">
            <mxPoint x="75" y="-272.5" as="sourcePoint" />
            <mxPoint x="115" y="-272.5" as="targetPoint" />
          </mxGeometry>
        </mxCell>
        <mxCell id="hw2e2iY90Wc657Rlc0dh-43" value="" style="endArrow=none;html=1;rounded=0;entryX=0;entryY=0.5;entryDx=0;entryDy=0;exitX=1;exitY=0.5;exitDx=0;exitDy=0;" edge="1" parent="1" source="hw2e2iY90Wc657Rlc0dh-11" target="hw2e2iY90Wc657Rlc0dh-13">
          <mxGeometry width="50" height="50" relative="1" as="geometry">
            <mxPoint x="100" y="-262" as="sourcePoint" />
            <mxPoint x="140" y="-262" as="targetPoint" />
          </mxGeometry>
        </mxCell>
        <mxCell id="hw2e2iY90Wc657Rlc0dh-44" value="" style="endArrow=none;html=1;rounded=0;entryX=0;entryY=0.5;entryDx=0;entryDy=0;exitX=1;exitY=0.5;exitDx=0;exitDy=0;" edge="1" parent="1" source="hw2e2iY90Wc657Rlc0dh-10" target="hw2e2iY90Wc657Rlc0dh-12">
          <mxGeometry width="50" height="50" relative="1" as="geometry">
            <mxPoint x="150" y="-152.5" as="sourcePoint" />
            <mxPoint x="190" y="-152.5" as="targetPoint" />
          </mxGeometry>
        </mxCell>
        <mxCell id="hw2e2iY90Wc657Rlc0dh-45" value="" style="endArrow=none;html=1;rounded=0;entryX=0;entryY=0.5;entryDx=0;entryDy=0;exitX=1;exitY=0.5;exitDx=0;exitDy=0;" edge="1" parent="1" source="hw2e2iY90Wc657Rlc0dh-10" target="hw2e2iY90Wc657Rlc0dh-13">
          <mxGeometry width="50" height="50" relative="1" as="geometry">
            <mxPoint x="170" y="-82" as="sourcePoint" />
            <mxPoint x="210" y="-82" as="targetPoint" />
          </mxGeometry>
        </mxCell>
        <mxCell id="hw2e2iY90Wc657Rlc0dh-46" value="" style="endArrow=none;html=1;rounded=0;entryX=0;entryY=0.5;entryDx=0;entryDy=0;exitX=1;exitY=0.5;exitDx=0;exitDy=0;" edge="1" parent="1" source="hw2e2iY90Wc657Rlc0dh-9" target="hw2e2iY90Wc657Rlc0dh-12">
          <mxGeometry width="50" height="50" relative="1" as="geometry">
            <mxPoint x="75" y="-72.5" as="sourcePoint" />
            <mxPoint x="115" y="-72.5" as="targetPoint" />
          </mxGeometry>
        </mxCell>
        <mxCell id="hw2e2iY90Wc657Rlc0dh-47" value="" style="endArrow=none;html=1;rounded=0;entryX=0;entryY=0.5;entryDx=0;entryDy=0;exitX=1;exitY=0.5;exitDx=0;exitDy=0;" edge="1" parent="1" source="hw2e2iY90Wc657Rlc0dh-9" target="hw2e2iY90Wc657Rlc0dh-13">
          <mxGeometry width="50" height="50" relative="1" as="geometry">
            <mxPoint x="190" y="-62" as="sourcePoint" />
            <mxPoint x="230" y="-62" as="targetPoint" />
          </mxGeometry>
        </mxCell>
        <mxCell id="hw2e2iY90Wc657Rlc0dh-48" value="" style="endArrow=none;html=1;rounded=0;entryX=0;entryY=0.5;entryDx=0;entryDy=0;exitX=1;exitY=0.5;exitDx=0;exitDy=0;" edge="1" parent="1" source="hw2e2iY90Wc657Rlc0dh-8" target="hw2e2iY90Wc657Rlc0dh-13">
          <mxGeometry width="50" height="50" relative="1" as="geometry">
            <mxPoint x="200" y="-52" as="sourcePoint" />
            <mxPoint x="240" y="-52" as="targetPoint" />
          </mxGeometry>
        </mxCell>
        <mxCell id="hw2e2iY90Wc657Rlc0dh-49" value="" style="endArrow=none;html=1;rounded=0;entryX=0;entryY=0.5;entryDx=0;entryDy=0;exitX=1;exitY=0.5;exitDx=0;exitDy=0;" edge="1" parent="1" source="hw2e2iY90Wc657Rlc0dh-8" target="hw2e2iY90Wc657Rlc0dh-12">
          <mxGeometry width="50" height="50" relative="1" as="geometry">
            <mxPoint x="100" y="-22" as="sourcePoint" />
            <mxPoint x="140" y="-22" as="targetPoint" />
          </mxGeometry>
        </mxCell>
        <mxCell id="hw2e2iY90Wc657Rlc0dh-50" value="" style="group" vertex="1" connectable="0" parent="1">
          <mxGeometry x="-160" y="-350" width="60" height="50" as="geometry" />
        </mxCell>
        <mxCell id="hw2e2iY90Wc657Rlc0dh-51" value="&lt;font style=&quot;font-size: 14px;&quot;&gt;&lt;svg xmlns:xlink=&quot;http://www.w3.org/1999/xlink&quot; viewBox=&quot;0 -694 3211.5 888&quot; role=&quot;img&quot; height=&quot;2.009ex&quot; width=&quot;7.266ex&quot; xmlns=&quot;http://www.w3.org/2000/svg&quot; style=&quot;vertical-align: -0.439ex;&quot;&gt;&lt;defs&gt;&lt;path d=&quot;M34 159Q34 268 120 355T306 442Q362 442 394 418T427 355Q427 326 408 306T360 285Q341 285 330 295T319 325T330 359T352 380T366 386H367Q367 388 361 392T340 400T306 404Q276 404 249 390Q228 381 206 359Q162 315 142 235T121 119Q121 73 147 50Q169 26 205 26H209Q321 26 394 111Q403 121 406 121Q410 121 419 112T429 98T420 83T391 55T346 25T282 0T202 -11Q127 -11 81 37T34 159Z&quot; id=&quot;MJX-2-TEX-I-1D450&quot;&gt;&lt;/path&gt;&lt;path d=&quot;M33 157Q33 258 109 349T280 441Q331 441 370 392Q386 422 416 422Q429 422 439 414T449 394Q449 381 412 234T374 68Q374 43 381 35T402 26Q411 27 422 35Q443 55 463 131Q469 151 473 152Q475 153 483 153H487Q506 153 506 144Q506 138 501 117T481 63T449 13Q436 0 417 -8Q409 -10 393 -10Q359 -10 336 5T306 36L300 51Q299 52 296 50Q294 48 292 46Q233 -10 172 -10Q117 -10 75 30T33 157ZM351 328Q351 334 346 350T323 385T277 405Q242 405 210 374T160 293Q131 214 119 129Q119 126 119 118T118 106Q118 61 136 44T179 26Q217 26 254 59T298 110Q300 114 325 217T351 328Z&quot; id=&quot;MJX-2-TEX-I-1D44E&quot;&gt;&lt;/path&gt;&lt;path d=&quot;M23 287Q24 290 25 295T30 317T40 348T55 381T75 411T101 433T134 442Q209 442 230 378L240 387Q302 442 358 442Q423 442 460 395T497 281Q497 173 421 82T249 -10Q227 -10 210 -4Q199 1 187 11T168 28L161 36Q160 35 139 -51T118 -138Q118 -144 126 -145T163 -148H188Q194 -155 194 -157T191 -175Q188 -187 185 -190T172 -194Q170 -194 161 -194T127 -193T65 -192Q-5 -192 -24 -194H-32Q-39 -187 -39 -183Q-37 -156 -26 -148H-6Q28 -147 33 -136Q36 -130 94 103T155 350Q156 355 156 364Q156 405 131 405Q109 405 94 377T71 316T59 280Q57 278 43 278H29Q23 284 23 287ZM178 102Q200 26 252 26Q282 26 310 49T356 107Q374 141 392 215T411 325V331Q411 405 350 405Q339 405 328 402T306 393T286 380T269 365T254 350T243 336T235 326L232 322Q232 321 229 308T218 264T204 212Q178 106 178 102Z&quot; id=&quot;MJX-2-TEX-I-1D45D&quot;&gt;&lt;/path&gt;&lt;path d=&quot;M366 683Q367 683 438 688T511 694Q523 694 523 686Q523 679 450 384T375 83T374 68Q374 26 402 26Q411 27 422 35Q443 55 463 131Q469 151 473 152Q475 153 483 153H487H491Q506 153 506 145Q506 140 503 129Q490 79 473 48T445 8T417 -8Q409 -10 393 -10Q359 -10 336 5T306 36L300 51Q299 52 296 50Q294 48 292 46Q233 -10 172 -10Q117 -10 75 30T33 157Q33 205 53 255T101 341Q148 398 195 420T280 442Q336 442 364 400Q369 394 369 396Q370 400 396 505T424 616Q424 629 417 632T378 637H357Q351 643 351 645T353 664Q358 683 366 683ZM352 326Q329 405 277 405Q242 405 210 374T160 293Q131 214 119 129Q119 126 119 118T118 106Q118 61 136 44T179 26Q233 26 290 98L298 109L352 326Z&quot; id=&quot;MJX-2-TEX-I-1D451&quot;&gt;&lt;/path&gt;&lt;path d=&quot;M39 168Q39 225 58 272T107 350T174 402T244 433T307 442H310Q355 442 388 420T421 355Q421 265 310 237Q261 224 176 223Q139 223 138 221Q138 219 132 186T125 128Q125 81 146 54T209 26T302 45T394 111Q403 121 406 121Q410 121 419 112T429 98T420 82T390 55T344 24T281 -1T205 -11Q126 -11 83 42T39 168ZM373 353Q367 405 305 405Q272 405 244 391T199 357T170 316T154 280T149 261Q149 260 169 260Q282 260 327 284T373 353Z&quot; id=&quot;MJX-2-TEX-I-1D452&quot;&gt;&lt;/path&gt;&lt;/defs&gt;&lt;g transform=&quot;scale(1,-1)&quot; stroke-width=&quot;0&quot; fill=&quot;currentColor&quot; stroke=&quot;currentColor&quot;&gt;&lt;g data-mml-node=&quot;math&quot;&gt;&lt;g data-mml-node=&quot;mi&quot;&gt;&lt;use xlink:href=&quot;#MJX-2-TEX-I-1D450&quot; data-c=&quot;1D450&quot;&gt;&lt;/use&gt;&lt;/g&gt;&lt;g transform=&quot;translate(433,0)&quot; data-mml-node=&quot;mi&quot;&gt;&lt;use xlink:href=&quot;#MJX-2-TEX-I-1D44E&quot; data-c=&quot;1D44E&quot;&gt;&lt;/use&gt;&lt;/g&gt;&lt;g transform=&quot;translate(962,0)&quot; data-mml-node=&quot;mi&quot;&gt;&lt;use xlink:href=&quot;#MJX-2-TEX-I-1D45D&quot; data-c=&quot;1D45D&quot;&gt;&lt;/use&gt;&lt;/g&gt;&lt;g transform=&quot;translate(1465,0)&quot; data-mml-node=&quot;mi&quot;&gt;&lt;use xlink:href=&quot;#MJX-2-TEX-I-1D44E&quot; data-c=&quot;1D44E&quot;&gt;&lt;/use&gt;&lt;/g&gt;&lt;g transform=&quot;translate(1994,0)&quot; data-mml-node=&quot;mspace&quot;&gt;&lt;/g&gt;&lt;g transform=&quot;translate(2225.5,0)&quot; data-mml-node=&quot;mi&quot;&gt;&lt;use xlink:href=&quot;#MJX-2-TEX-I-1D451&quot; data-c=&quot;1D451&quot;&gt;&lt;/use&gt;&lt;/g&gt;&lt;g transform=&quot;translate(2745.5,0)&quot; data-mml-node=&quot;mi&quot;&gt;&lt;use xlink:href=&quot;#MJX-2-TEX-I-1D452&quot; data-c=&quot;1D452&quot;&gt;&lt;/use&gt;&lt;/g&gt;&lt;/g&gt;&lt;/g&gt;&lt;/svg&gt;&lt;/font&gt;" style="text;html=1;align=center;verticalAlign=middle;whiteSpace=wrap;rounded=0;" vertex="1" parent="hw2e2iY90Wc657Rlc0dh-50">
          <mxGeometry width="60" height="30" as="geometry" />
        </mxCell>
        <mxCell id="hw2e2iY90Wc657Rlc0dh-52" value="&lt;font style=&quot;font-size: 14px;&quot;&gt;$$entrada$$&lt;/font&gt;" style="text;html=1;align=center;verticalAlign=middle;whiteSpace=wrap;rounded=0;" vertex="1" parent="hw2e2iY90Wc657Rlc0dh-50">
          <mxGeometry y="20" width="60" height="30" as="geometry" />
        </mxCell>
        <mxCell id="hw2e2iY90Wc657Rlc0dh-53" value="&lt;font style=&quot;font-size: 14px;&quot;&gt;$$capas\hspace{1mm}ocultas$$&lt;/font&gt;" style="text;html=1;align=center;verticalAlign=middle;resizable=0;points=[];autosize=1;strokeColor=none;fillColor=none;" vertex="1" parent="1">
          <mxGeometry x="-85" y="-340" width="230" height="30" as="geometry" />
        </mxCell>
        <mxCell id="hw2e2iY90Wc657Rlc0dh-54" value="" style="group" vertex="1" connectable="0" parent="1">
          <mxGeometry x="151" y="-350" width="75" height="70" as="geometry" />
        </mxCell>
        <mxCell id="hw2e2iY90Wc657Rlc0dh-55" value="&lt;font style=&quot;font-size: 14px;&quot;&gt;&lt;svg xmlns:xlink=&quot;http://www.w3.org/1999/xlink&quot; viewBox=&quot;0 -694 3211.5 888&quot; role=&quot;img&quot; height=&quot;2.009ex&quot; width=&quot;7.266ex&quot; xmlns=&quot;http://www.w3.org/2000/svg&quot; style=&quot;vertical-align: -0.439ex;&quot;&gt;&lt;defs&gt;&lt;path d=&quot;M34 159Q34 268 120 355T306 442Q362 442 394 418T427 355Q427 326 408 306T360 285Q341 285 330 295T319 325T330 359T352 380T366 386H367Q367 388 361 392T340 400T306 404Q276 404 249 390Q228 381 206 359Q162 315 142 235T121 119Q121 73 147 50Q169 26 205 26H209Q321 26 394 111Q403 121 406 121Q410 121 419 112T429 98T420 83T391 55T346 25T282 0T202 -11Q127 -11 81 37T34 159Z&quot; id=&quot;MJX-2-TEX-I-1D450&quot;&gt;&lt;/path&gt;&lt;path d=&quot;M33 157Q33 258 109 349T280 441Q331 441 370 392Q386 422 416 422Q429 422 439 414T449 394Q449 381 412 234T374 68Q374 43 381 35T402 26Q411 27 422 35Q443 55 463 131Q469 151 473 152Q475 153 483 153H487Q506 153 506 144Q506 138 501 117T481 63T449 13Q436 0 417 -8Q409 -10 393 -10Q359 -10 336 5T306 36L300 51Q299 52 296 50Q294 48 292 46Q233 -10 172 -10Q117 -10 75 30T33 157ZM351 328Q351 334 346 350T323 385T277 405Q242 405 210 374T160 293Q131 214 119 129Q119 126 119 118T118 106Q118 61 136 44T179 26Q217 26 254 59T298 110Q300 114 325 217T351 328Z&quot; id=&quot;MJX-2-TEX-I-1D44E&quot;&gt;&lt;/path&gt;&lt;path d=&quot;M23 287Q24 290 25 295T30 317T40 348T55 381T75 411T101 433T134 442Q209 442 230 378L240 387Q302 442 358 442Q423 442 460 395T497 281Q497 173 421 82T249 -10Q227 -10 210 -4Q199 1 187 11T168 28L161 36Q160 35 139 -51T118 -138Q118 -144 126 -145T163 -148H188Q194 -155 194 -157T191 -175Q188 -187 185 -190T172 -194Q170 -194 161 -194T127 -193T65 -192Q-5 -192 -24 -194H-32Q-39 -187 -39 -183Q-37 -156 -26 -148H-6Q28 -147 33 -136Q36 -130 94 103T155 350Q156 355 156 364Q156 405 131 405Q109 405 94 377T71 316T59 280Q57 278 43 278H29Q23 284 23 287ZM178 102Q200 26 252 26Q282 26 310 49T356 107Q374 141 392 215T411 325V331Q411 405 350 405Q339 405 328 402T306 393T286 380T269 365T254 350T243 336T235 326L232 322Q232 321 229 308T218 264T204 212Q178 106 178 102Z&quot; id=&quot;MJX-2-TEX-I-1D45D&quot;&gt;&lt;/path&gt;&lt;path d=&quot;M366 683Q367 683 438 688T511 694Q523 694 523 686Q523 679 450 384T375 83T374 68Q374 26 402 26Q411 27 422 35Q443 55 463 131Q469 151 473 152Q475 153 483 153H487H491Q506 153 506 145Q506 140 503 129Q490 79 473 48T445 8T417 -8Q409 -10 393 -10Q359 -10 336 5T306 36L300 51Q299 52 296 50Q294 48 292 46Q233 -10 172 -10Q117 -10 75 30T33 157Q33 205 53 255T101 341Q148 398 195 420T280 442Q336 442 364 400Q369 394 369 396Q370 400 396 505T424 616Q424 629 417 632T378 637H357Q351 643 351 645T353 664Q358 683 366 683ZM352 326Q329 405 277 405Q242 405 210 374T160 293Q131 214 119 129Q119 126 119 118T118 106Q118 61 136 44T179 26Q233 26 290 98L298 109L352 326Z&quot; id=&quot;MJX-2-TEX-I-1D451&quot;&gt;&lt;/path&gt;&lt;path d=&quot;M39 168Q39 225 58 272T107 350T174 402T244 433T307 442H310Q355 442 388 420T421 355Q421 265 310 237Q261 224 176 223Q139 223 138 221Q138 219 132 186T125 128Q125 81 146 54T209 26T302 45T394 111Q403 121 406 121Q410 121 419 112T429 98T420 82T390 55T344 24T281 -1T205 -11Q126 -11 83 42T39 168ZM373 353Q367 405 305 405Q272 405 244 391T199 357T170 316T154 280T149 261Q149 260 169 260Q282 260 327 284T373 353Z&quot; id=&quot;MJX-2-TEX-I-1D452&quot;&gt;&lt;/path&gt;&lt;/defs&gt;&lt;g transform=&quot;scale(1,-1)&quot; stroke-width=&quot;0&quot; fill=&quot;currentColor&quot; stroke=&quot;currentColor&quot;&gt;&lt;g data-mml-node=&quot;math&quot;&gt;&lt;g data-mml-node=&quot;mi&quot;&gt;&lt;use xlink:href=&quot;#MJX-2-TEX-I-1D450&quot; data-c=&quot;1D450&quot;&gt;&lt;/use&gt;&lt;/g&gt;&lt;g transform=&quot;translate(433,0)&quot; data-mml-node=&quot;mi&quot;&gt;&lt;use xlink:href=&quot;#MJX-2-TEX-I-1D44E&quot; data-c=&quot;1D44E&quot;&gt;&lt;/use&gt;&lt;/g&gt;&lt;g transform=&quot;translate(962,0)&quot; data-mml-node=&quot;mi&quot;&gt;&lt;use xlink:href=&quot;#MJX-2-TEX-I-1D45D&quot; data-c=&quot;1D45D&quot;&gt;&lt;/use&gt;&lt;/g&gt;&lt;g transform=&quot;translate(1465,0)&quot; data-mml-node=&quot;mi&quot;&gt;&lt;use xlink:href=&quot;#MJX-2-TEX-I-1D44E&quot; data-c=&quot;1D44E&quot;&gt;&lt;/use&gt;&lt;/g&gt;&lt;g transform=&quot;translate(1994,0)&quot; data-mml-node=&quot;mspace&quot;&gt;&lt;/g&gt;&lt;g transform=&quot;translate(2225.5,0)&quot; data-mml-node=&quot;mi&quot;&gt;&lt;use xlink:href=&quot;#MJX-2-TEX-I-1D451&quot; data-c=&quot;1D451&quot;&gt;&lt;/use&gt;&lt;/g&gt;&lt;g transform=&quot;translate(2745.5,0)&quot; data-mml-node=&quot;mi&quot;&gt;&lt;use xlink:href=&quot;#MJX-2-TEX-I-1D452&quot; data-c=&quot;1D452&quot;&gt;&lt;/use&gt;&lt;/g&gt;&lt;/g&gt;&lt;/g&gt;&lt;/svg&gt;&lt;/font&gt;" style="text;html=1;align=center;verticalAlign=middle;whiteSpace=wrap;rounded=0;" vertex="1" parent="hw2e2iY90Wc657Rlc0dh-54">
          <mxGeometry width="60" height="30" as="geometry" />
        </mxCell>
        <mxCell id="hw2e2iY90Wc657Rlc0dh-56" value="&lt;font style=&quot;font-size: 14px;&quot;&gt;$$salida$$&lt;/font&gt;" style="text;html=1;align=center;verticalAlign=middle;whiteSpace=wrap;rounded=0;" vertex="1" parent="hw2e2iY90Wc657Rlc0dh-54">
          <mxGeometry y="20" width="60" height="30" as="geometry" />
        </mxCell>
        <mxCell id="hw2e2iY90Wc657Rlc0dh-57" value="" style="group;strokeColor=none;rounded=0;" vertex="1" connectable="0" parent="hw2e2iY90Wc657Rlc0dh-54">
          <mxGeometry x="-11" y="48" width="90" height="20" as="geometry" />
        </mxCell>
        <mxCell id="hw2e2iY90Wc657Rlc0dh-58" value="" style="endArrow=none;html=1;rounded=0;" edge="1" parent="hw2e2iY90Wc657Rlc0dh-57">
          <mxGeometry width="50" height="50" relative="1" as="geometry">
            <mxPoint as="sourcePoint" />
            <mxPoint x="90" as="targetPoint" />
          </mxGeometry>
        </mxCell>
        <mxCell id="hw2e2iY90Wc657Rlc0dh-59" value="" style="endArrow=none;html=1;rounded=0;" edge="1" parent="hw2e2iY90Wc657Rlc0dh-57">
          <mxGeometry width="50" height="50" relative="1" as="geometry">
            <mxPoint y="20" as="sourcePoint" />
            <mxPoint as="targetPoint" />
          </mxGeometry>
        </mxCell>
        <mxCell id="hw2e2iY90Wc657Rlc0dh-60" value="" style="endArrow=none;html=1;rounded=0;" edge="1" parent="hw2e2iY90Wc657Rlc0dh-57">
          <mxGeometry width="50" height="50" relative="1" as="geometry">
            <mxPoint x="90" y="20" as="sourcePoint" />
            <mxPoint x="90" as="targetPoint" />
          </mxGeometry>
        </mxCell>
        <mxCell id="hw2e2iY90Wc657Rlc0dh-61" value="" style="group;strokeColor=none;rounded=0;" vertex="1" connectable="0" parent="1">
          <mxGeometry x="-170" y="-302" width="90" height="20" as="geometry" />
        </mxCell>
        <mxCell id="hw2e2iY90Wc657Rlc0dh-62" value="" style="endArrow=none;html=1;rounded=0;" edge="1" parent="hw2e2iY90Wc657Rlc0dh-61">
          <mxGeometry width="50" height="50" relative="1" as="geometry">
            <mxPoint as="sourcePoint" />
            <mxPoint x="90" as="targetPoint" />
          </mxGeometry>
        </mxCell>
        <mxCell id="hw2e2iY90Wc657Rlc0dh-63" value="" style="endArrow=none;html=1;rounded=0;" edge="1" parent="hw2e2iY90Wc657Rlc0dh-61">
          <mxGeometry width="50" height="50" relative="1" as="geometry">
            <mxPoint y="20" as="sourcePoint" />
            <mxPoint as="targetPoint" />
          </mxGeometry>
        </mxCell>
        <mxCell id="hw2e2iY90Wc657Rlc0dh-64" value="" style="endArrow=none;html=1;rounded=0;" edge="1" parent="hw2e2iY90Wc657Rlc0dh-61">
          <mxGeometry width="50" height="50" relative="1" as="geometry">
            <mxPoint x="90" y="20" as="sourcePoint" />
            <mxPoint x="90" as="targetPoint" />
          </mxGeometry>
        </mxCell>
        <mxCell id="hw2e2iY90Wc657Rlc0dh-65" value="" style="group;strokeColor=none;rounded=0;" vertex="1" connectable="0" parent="1">
          <mxGeometry x="-70" y="-302" width="200" height="20" as="geometry" />
        </mxCell>
        <mxCell id="hw2e2iY90Wc657Rlc0dh-66" value="" style="endArrow=none;html=1;rounded=0;" edge="1" parent="hw2e2iY90Wc657Rlc0dh-65">
          <mxGeometry width="50" height="50" relative="1" as="geometry">
            <mxPoint as="sourcePoint" />
            <mxPoint x="200.00000000000006" as="targetPoint" />
          </mxGeometry>
        </mxCell>
        <mxCell id="hw2e2iY90Wc657Rlc0dh-67" value="" style="endArrow=none;html=1;rounded=0;" edge="1" parent="hw2e2iY90Wc657Rlc0dh-65">
          <mxGeometry width="50" height="50" relative="1" as="geometry">
            <mxPoint y="20" as="sourcePoint" />
            <mxPoint as="targetPoint" />
          </mxGeometry>
        </mxCell>
        <mxCell id="hw2e2iY90Wc657Rlc0dh-68" value="" style="endArrow=none;html=1;rounded=0;" edge="1" parent="hw2e2iY90Wc657Rlc0dh-65">
          <mxGeometry width="50" height="50" relative="1" as="geometry">
            <mxPoint x="200.00000000000006" y="20" as="sourcePoint" />
            <mxPoint x="200.00000000000006" as="targetPoint" />
          </mxGeometry>
        </mxCell>
        <mxCell id="hw2e2iY90Wc657Rlc0dh-69" value="$$a_n^n$$" style="ellipse;whiteSpace=wrap;html=1;aspect=fixed;fillColor=#b3c8cf;" vertex="1" parent="1">
          <mxGeometry x="166" y="-92" width="40" height="40" as="geometry" />
        </mxCell>
        <mxCell id="hw2e2iY90Wc657Rlc0dh-70" value="" style="endArrow=none;html=1;rounded=0;entryX=1;entryY=0.5;entryDx=0;entryDy=0;exitX=0;exitY=0.5;exitDx=0;exitDy=0;" edge="1" parent="1" source="hw2e2iY90Wc657Rlc0dh-69" target="hw2e2iY90Wc657Rlc0dh-11">
          <mxGeometry width="50" height="50" relative="1" as="geometry">
            <mxPoint y="-150" as="sourcePoint" />
            <mxPoint x="50" y="-200" as="targetPoint" />
          </mxGeometry>
        </mxCell>
        <mxCell id="hw2e2iY90Wc657Rlc0dh-71" value="" style="endArrow=none;html=1;rounded=0;entryX=1;entryY=0.5;entryDx=0;entryDy=0;exitX=0;exitY=0.5;exitDx=0;exitDy=0;" edge="1" parent="1" source="hw2e2iY90Wc657Rlc0dh-69" target="hw2e2iY90Wc657Rlc0dh-10">
          <mxGeometry width="50" height="50" relative="1" as="geometry">
            <mxPoint y="-150" as="sourcePoint" />
            <mxPoint x="50" y="-200" as="targetPoint" />
          </mxGeometry>
        </mxCell>
        <mxCell id="hw2e2iY90Wc657Rlc0dh-72" value="" style="endArrow=none;html=1;rounded=0;entryX=1;entryY=0.5;entryDx=0;entryDy=0;exitX=0;exitY=0.5;exitDx=0;exitDy=0;" edge="1" parent="1" source="hw2e2iY90Wc657Rlc0dh-69" target="hw2e2iY90Wc657Rlc0dh-9">
          <mxGeometry width="50" height="50" relative="1" as="geometry">
            <mxPoint y="-150" as="sourcePoint" />
            <mxPoint x="50" y="-200" as="targetPoint" />
          </mxGeometry>
        </mxCell>
        <mxCell id="hw2e2iY90Wc657Rlc0dh-73" value="" style="endArrow=none;html=1;rounded=0;entryX=1;entryY=0.5;entryDx=0;entryDy=0;exitX=0;exitY=0.5;exitDx=0;exitDy=0;" edge="1" parent="1" source="hw2e2iY90Wc657Rlc0dh-69" target="hw2e2iY90Wc657Rlc0dh-8">
          <mxGeometry width="50" height="50" relative="1" as="geometry">
            <mxPoint y="-150" as="sourcePoint" />
            <mxPoint x="50" y="-200" as="targetPoint" />
          </mxGeometry>
        </mxCell>
        <mxCell id="hw2e2iY90Wc657Rlc0dh-74" value="" style="endArrow=none;dashed=1;html=1;dashPattern=1 3;strokeWidth=2;rounded=0;" edge="1" parent="1">
          <mxGeometry width="50" height="50" relative="1" as="geometry">
            <mxPoint x="-121" y="-97" as="sourcePoint" />
            <mxPoint x="-121" y="-127" as="targetPoint" />
          </mxGeometry>
        </mxCell>
        <mxCell id="hw2e2iY90Wc657Rlc0dh-75" value="" style="endArrow=none;dashed=1;html=1;dashPattern=1 3;strokeWidth=2;rounded=0;" edge="1" parent="1">
          <mxGeometry width="50" height="50" relative="1" as="geometry">
            <mxPoint x="39.5" y="-57" as="sourcePoint" />
            <mxPoint x="39.5" y="-87" as="targetPoint" />
          </mxGeometry>
        </mxCell>
        <mxCell id="hw2e2iY90Wc657Rlc0dh-76" value="" style="endArrow=none;dashed=1;html=1;dashPattern=1 3;strokeWidth=2;rounded=0;" edge="1" parent="1">
          <mxGeometry width="50" height="50" relative="1" as="geometry">
            <mxPoint x="-40.5" y="-57" as="sourcePoint" />
            <mxPoint x="-40.5" y="-87" as="targetPoint" />
          </mxGeometry>
        </mxCell>
        <mxCell id="hw2e2iY90Wc657Rlc0dh-77" value="" style="endArrow=none;dashed=1;html=1;dashPattern=1 3;strokeWidth=2;rounded=0;" edge="1" parent="1">
          <mxGeometry width="50" height="50" relative="1" as="geometry">
            <mxPoint x="185.5" y="-97" as="sourcePoint" />
            <mxPoint x="185.5" y="-127" as="targetPoint" />
          </mxGeometry>
        </mxCell>
        <mxCell id="hw2e2iY90Wc657Rlc0dh-78" value="" style="endArrow=none;dashed=1;html=1;dashPattern=1 3;strokeWidth=2;rounded=0;" edge="1" parent="1">
          <mxGeometry width="50" height="50" relative="1" as="geometry">
            <mxPoint x="90" y="-220" as="sourcePoint" />
            <mxPoint x="120" y="-220" as="targetPoint" />
          </mxGeometry>
        </mxCell>
        <mxCell id="hw2e2iY90Wc657Rlc0dh-79" value="" style="endArrow=none;dashed=1;html=1;dashPattern=1 3;strokeWidth=2;rounded=0;" edge="1" parent="1">
          <mxGeometry width="50" height="50" relative="1" as="geometry">
            <mxPoint x="90" y="-150" as="sourcePoint" />
            <mxPoint x="120" y="-150" as="targetPoint" />
          </mxGeometry>
        </mxCell>
        <mxCell id="hw2e2iY90Wc657Rlc0dh-80" value="" style="endArrow=none;dashed=1;html=1;dashPattern=1 3;strokeWidth=2;rounded=0;" edge="1" parent="1">
          <mxGeometry width="50" height="50" relative="1" as="geometry">
            <mxPoint x="90" y="-80" as="sourcePoint" />
            <mxPoint x="120" y="-80" as="targetPoint" />
          </mxGeometry>
        </mxCell>
      </root>
    </mxGraphModel>
  </diagram>
</mxfile>
